%TF.GenerationSoftware,KiCad,Pcbnew,9.0.0*%
%TF.CreationDate,2026-02-18T18:52:23-08:00*%
%TF.ProjectId,jack-breakout,6a61636b-2d62-4726-9561-6b6f75742e6b,rev?*%
%TF.SameCoordinates,Original*%
%TF.FileFunction,Legend,Top*%
%TF.FilePolarity,Positive*%
%FSLAX46Y46*%
G04 Gerber Fmt 4.6, Leading zero omitted, Abs format (unit mm)*
G04 Created by KiCad (PCBNEW 9.0.0) date 2026-02-18 18:52:23*
%MOMM*%
%LPD*%
G01*
G04 APERTURE LIST*
%ADD10C,0.150000*%
%ADD11C,0.120000*%
%ADD12C,0.100000*%
G04 APERTURE END LIST*
D10*
X135318155Y-118669809D02*
X135452842Y-118602465D01*
X135452842Y-118602465D02*
X135621201Y-118434107D01*
X135621201Y-118434107D02*
X135654873Y-118333091D01*
X135654873Y-118333091D02*
X135654873Y-118265748D01*
X135654873Y-118265748D02*
X135621201Y-118164733D01*
X135621201Y-118164733D02*
X135553857Y-118097389D01*
X135553857Y-118097389D02*
X135452842Y-118063717D01*
X135452842Y-118063717D02*
X135385499Y-118063717D01*
X135385499Y-118063717D02*
X135284483Y-118097389D01*
X135284483Y-118097389D02*
X135116125Y-118198404D01*
X135116125Y-118198404D02*
X135015109Y-118232076D01*
X135015109Y-118232076D02*
X134947766Y-118232076D01*
X134947766Y-118232076D02*
X134846751Y-118198404D01*
X134846751Y-118198404D02*
X134779407Y-118131061D01*
X134779407Y-118131061D02*
X134745735Y-118030046D01*
X134745735Y-118030046D02*
X134745735Y-117962702D01*
X134745735Y-117962702D02*
X134779407Y-117861687D01*
X134779407Y-117861687D02*
X134947766Y-117693328D01*
X134947766Y-117693328D02*
X135082453Y-117625984D01*
X133232724Y-118265748D02*
X132660304Y-118164733D01*
X132828663Y-118669809D02*
X132121556Y-117962702D01*
X132121556Y-117962702D02*
X132390930Y-117693328D01*
X132390930Y-117693328D02*
X132491945Y-117659656D01*
X132491945Y-117659656D02*
X132559289Y-117659656D01*
X132559289Y-117659656D02*
X132660304Y-117693328D01*
X132660304Y-117693328D02*
X132761319Y-117794343D01*
X132761319Y-117794343D02*
X132794991Y-117895358D01*
X132794991Y-117895358D02*
X132794991Y-117962702D01*
X132794991Y-117962702D02*
X132761319Y-118063717D01*
X132761319Y-118063717D02*
X132491945Y-118333091D01*
X136915345Y-118669809D02*
X137050032Y-118602465D01*
X137050032Y-118602465D02*
X137218391Y-118434107D01*
X137218391Y-118434107D02*
X137252063Y-118333091D01*
X137252063Y-118333091D02*
X137252063Y-118265748D01*
X137252063Y-118265748D02*
X137218391Y-118164733D01*
X137218391Y-118164733D02*
X137151047Y-118097389D01*
X137151047Y-118097389D02*
X137050032Y-118063717D01*
X137050032Y-118063717D02*
X136982689Y-118063717D01*
X136982689Y-118063717D02*
X136881673Y-118097389D01*
X136881673Y-118097389D02*
X136713315Y-118198404D01*
X136713315Y-118198404D02*
X136612299Y-118232076D01*
X136612299Y-118232076D02*
X136544956Y-118232076D01*
X136544956Y-118232076D02*
X136443941Y-118198404D01*
X136443941Y-118198404D02*
X136376597Y-118131061D01*
X136376597Y-118131061D02*
X136342925Y-118030046D01*
X136342925Y-118030046D02*
X136342925Y-117962702D01*
X136342925Y-117962702D02*
X136376597Y-117861687D01*
X136376597Y-117861687D02*
X136544956Y-117693328D01*
X136544956Y-117693328D02*
X136679643Y-117625984D01*
X136881673Y-117356610D02*
X137757139Y-117895358D01*
X137757139Y-117895358D02*
X137386750Y-117255595D01*
X137386750Y-117255595D02*
X138026513Y-117625984D01*
X138026513Y-117625984D02*
X137487765Y-116750519D01*
X138363230Y-117423954D02*
X138901978Y-116885206D01*
X138194872Y-116043412D02*
X138598933Y-115639351D01*
X139104009Y-116548488D02*
X138396902Y-115841382D01*
X129564720Y-118063717D02*
X129968781Y-117659656D01*
X130473857Y-118568794D02*
X129766750Y-117861687D01*
X139371166Y-118669809D02*
X139505853Y-118602465D01*
X139505853Y-118602465D02*
X139674212Y-118434107D01*
X139674212Y-118434107D02*
X139707884Y-118333091D01*
X139707884Y-118333091D02*
X139707884Y-118265748D01*
X139707884Y-118265748D02*
X139674212Y-118164733D01*
X139674212Y-118164733D02*
X139606868Y-118097389D01*
X139606868Y-118097389D02*
X139505853Y-118063717D01*
X139505853Y-118063717D02*
X139438510Y-118063717D01*
X139438510Y-118063717D02*
X139337494Y-118097389D01*
X139337494Y-118097389D02*
X139169136Y-118198404D01*
X139169136Y-118198404D02*
X139068120Y-118232076D01*
X139068120Y-118232076D02*
X139000777Y-118232076D01*
X139000777Y-118232076D02*
X138899762Y-118198404D01*
X138899762Y-118198404D02*
X138832418Y-118131061D01*
X138832418Y-118131061D02*
X138798746Y-118030046D01*
X138798746Y-118030046D02*
X138798746Y-117962702D01*
X138798746Y-117962702D02*
X138832418Y-117861687D01*
X138832418Y-117861687D02*
X139000777Y-117693328D01*
X139000777Y-117693328D02*
X139135464Y-117625984D01*
X139337494Y-117356610D02*
X140212960Y-117895358D01*
X140212960Y-117895358D02*
X139842571Y-117255595D01*
X139842571Y-117255595D02*
X140482334Y-117625984D01*
X140482334Y-117625984D02*
X139943586Y-116750519D01*
X140819051Y-117423954D02*
X141357799Y-116885206D01*
X141862876Y-116245443D02*
X141290456Y-116144427D01*
X141458815Y-116649504D02*
X140751708Y-115942397D01*
X140751708Y-115942397D02*
X141021082Y-115673023D01*
X141021082Y-115673023D02*
X141122097Y-115639351D01*
X141122097Y-115639351D02*
X141189441Y-115639351D01*
X141189441Y-115639351D02*
X141290456Y-115673023D01*
X141290456Y-115673023D02*
X141391471Y-115774038D01*
X141391471Y-115774038D02*
X141425143Y-115875053D01*
X141425143Y-115875053D02*
X141425143Y-115942397D01*
X141425143Y-115942397D02*
X141391471Y-116043412D01*
X141391471Y-116043412D02*
X141122097Y-116312786D01*
X141928002Y-118669809D02*
X142062689Y-118602465D01*
X142062689Y-118602465D02*
X142231048Y-118434107D01*
X142231048Y-118434107D02*
X142264720Y-118333091D01*
X142264720Y-118333091D02*
X142264720Y-118265748D01*
X142264720Y-118265748D02*
X142231048Y-118164733D01*
X142231048Y-118164733D02*
X142163704Y-118097389D01*
X142163704Y-118097389D02*
X142062689Y-118063717D01*
X142062689Y-118063717D02*
X141995346Y-118063717D01*
X141995346Y-118063717D02*
X141894330Y-118097389D01*
X141894330Y-118097389D02*
X141725972Y-118198404D01*
X141725972Y-118198404D02*
X141624956Y-118232076D01*
X141624956Y-118232076D02*
X141557613Y-118232076D01*
X141557613Y-118232076D02*
X141456598Y-118198404D01*
X141456598Y-118198404D02*
X141389254Y-118131061D01*
X141389254Y-118131061D02*
X141355582Y-118030046D01*
X141355582Y-118030046D02*
X141355582Y-117962702D01*
X141355582Y-117962702D02*
X141389254Y-117861687D01*
X141389254Y-117861687D02*
X141557613Y-117693328D01*
X141557613Y-117693328D02*
X141692300Y-117625984D01*
X141894330Y-117356610D02*
X142769796Y-117895358D01*
X142769796Y-117895358D02*
X142399407Y-117255595D01*
X142399407Y-117255595D02*
X143039170Y-117625984D01*
X143039170Y-117625984D02*
X142500422Y-116750519D01*
X143375887Y-117423954D02*
X143914635Y-116885206D01*
X143948307Y-116649504D02*
X144082994Y-116582160D01*
X144082994Y-116582160D02*
X144251353Y-116413801D01*
X144251353Y-116413801D02*
X144285025Y-116312786D01*
X144285025Y-116312786D02*
X144285025Y-116245443D01*
X144285025Y-116245443D02*
X144251353Y-116144427D01*
X144251353Y-116144427D02*
X144184009Y-116077084D01*
X144184009Y-116077084D02*
X144082994Y-116043412D01*
X144082994Y-116043412D02*
X144015651Y-116043412D01*
X144015651Y-116043412D02*
X143914635Y-116077084D01*
X143914635Y-116077084D02*
X143746277Y-116178099D01*
X143746277Y-116178099D02*
X143645261Y-116211771D01*
X143645261Y-116211771D02*
X143577918Y-116211771D01*
X143577918Y-116211771D02*
X143476903Y-116178099D01*
X143476903Y-116178099D02*
X143409559Y-116110756D01*
X143409559Y-116110756D02*
X143375887Y-116009740D01*
X143375887Y-116009740D02*
X143375887Y-115942397D01*
X143375887Y-115942397D02*
X143409559Y-115841382D01*
X143409559Y-115841382D02*
X143577918Y-115673023D01*
X143577918Y-115673023D02*
X143712605Y-115605679D01*
D11*
%TO.C,J2*%
X141580000Y-122330000D02*
X128820000Y-122330000D01*
X128820000Y-119670000D02*
X128820000Y-122330000D01*
X141580000Y-119670000D02*
X141580000Y-122330000D01*
X141580000Y-119670000D02*
X128820000Y-119670000D01*
X142850000Y-119670000D02*
X144180000Y-119670000D01*
X144180000Y-119670000D02*
X144180000Y-121000000D01*
%TO.C,J1*%
D12*
X127825000Y-113800000D02*
X145175000Y-113800000D01*
X145175000Y-80300000D01*
X127825000Y-80300000D01*
X127825000Y-113800000D01*
%TD*%
M02*
